<mxfile host="app.diagrams.net" modified="2021-05-13T21:33:59.229Z" agent="5.0 (Windows NT 10.0; Win64; x64) AppleWebKit/537.36 (KHTML, like Gecko) Chrome/90.0.4430.212 Safari/537.36" etag="hXNCIRBLadLz8SKSUctQ" version="14.6.13" type="github">
  <diagram id="caE5Gjq0dJQkNuKnopuj" name="Page-1">
    <mxGraphModel dx="1021" dy="612" grid="1" gridSize="10" guides="1" tooltips="1" connect="1" arrows="1" fold="1" page="1" pageScale="1" pageWidth="827" pageHeight="1169" math="0" shadow="0">
      <root>
        <mxCell id="0" />
        <mxCell id="1" parent="0" />
        <mxCell id="NkhRu724K2PwtEVL4MZ3-8" style="edgeStyle=orthogonalEdgeStyle;shape=flexArrow;rounded=0;orthogonalLoop=1;jettySize=auto;html=1;" edge="1" parent="1" source="NkhRu724K2PwtEVL4MZ3-1">
          <mxGeometry relative="1" as="geometry">
            <mxPoint x="600.0000000000002" y="189.9999999999999" as="targetPoint" />
          </mxGeometry>
        </mxCell>
        <mxCell id="NkhRu724K2PwtEVL4MZ3-1" value="" style="strokeWidth=1;shadow=0;dashed=0;align=center;html=1;shape=mxgraph.mockup.containers.browserWindow;rSize=0;strokeColor=#666666;strokeColor2=#008cff;strokeColor3=#c4c4c4;mainText=,;recursiveResize=0;" vertex="1" parent="1">
          <mxGeometry x="40" y="40" width="430" height="300" as="geometry" />
        </mxCell>
        <mxCell id="NkhRu724K2PwtEVL4MZ3-2" value="Page 1" style="strokeWidth=1;shadow=0;dashed=0;align=center;html=1;shape=mxgraph.mockup.containers.anchor;fontSize=17;fontColor=#666666;align=left;" vertex="1" parent="NkhRu724K2PwtEVL4MZ3-1">
          <mxGeometry x="60" y="12" width="110" height="26" as="geometry" />
        </mxCell>
        <mxCell id="NkhRu724K2PwtEVL4MZ3-3" value="https://www.frikbus.it" style="strokeWidth=1;shadow=0;dashed=0;align=center;html=1;shape=mxgraph.mockup.containers.anchor;rSize=0;fontSize=17;fontColor=#666666;align=left;" vertex="1" parent="NkhRu724K2PwtEVL4MZ3-1">
          <mxGeometry x="130" y="60" width="250" height="26" as="geometry" />
        </mxCell>
        <mxCell id="NkhRu724K2PwtEVL4MZ3-4" value="" style="shape=image;html=1;verticalAlign=top;verticalLabelPosition=bottom;labelBackgroundColor=#ffffff;imageAspect=0;aspect=fixed;image=https://cdn0.iconfinder.com/data/icons/small-n-flat/24/678109-profile-group-128.png" vertex="1" parent="NkhRu724K2PwtEVL4MZ3-1">
          <mxGeometry x="75" y="140" width="80" height="80" as="geometry" />
        </mxCell>
        <mxCell id="NkhRu724K2PwtEVL4MZ3-5" value="" style="shape=image;html=1;verticalAlign=top;verticalLabelPosition=bottom;labelBackgroundColor=#ffffff;imageAspect=0;aspect=fixed;image=https://cdn2.iconfinder.com/data/icons/ourea-icons/128/Administrative_Tools_256x256-32.png" vertex="1" parent="NkhRu724K2PwtEVL4MZ3-1">
          <mxGeometry x="260" y="150" width="75" height="75" as="geometry" />
        </mxCell>
        <mxCell id="NkhRu724K2PwtEVL4MZ3-6" value="Accesso&amp;nbsp;&lt;br&gt;Utenti" style="text;html=1;resizable=0;autosize=1;align=center;verticalAlign=middle;points=[];fillColor=none;strokeColor=none;rounded=0;" vertex="1" parent="NkhRu724K2PwtEVL4MZ3-1">
          <mxGeometry x="85" y="220" width="60" height="30" as="geometry" />
        </mxCell>
        <mxCell id="NkhRu724K2PwtEVL4MZ3-7" value="Amministrativa" style="text;html=1;resizable=0;autosize=1;align=center;verticalAlign=middle;points=[];fillColor=none;strokeColor=none;rounded=0;" vertex="1" parent="1">
          <mxGeometry x="300" y="270" width="90" height="20" as="geometry" />
        </mxCell>
        <mxCell id="NkhRu724K2PwtEVL4MZ3-40" style="edgeStyle=orthogonalEdgeStyle;shape=flexArrow;rounded=0;orthogonalLoop=1;jettySize=auto;html=1;" edge="1" parent="1" source="NkhRu724K2PwtEVL4MZ3-9">
          <mxGeometry relative="1" as="geometry">
            <mxPoint x="815" y="440" as="targetPoint" />
          </mxGeometry>
        </mxCell>
        <mxCell id="NkhRu724K2PwtEVL4MZ3-9" value="" style="strokeWidth=1;shadow=0;dashed=0;align=center;html=1;shape=mxgraph.mockup.containers.browserWindow;rSize=0;strokeColor=#666666;strokeColor2=#008cff;strokeColor3=#c4c4c4;mainText=,;recursiveResize=0;" vertex="1" parent="1">
          <mxGeometry x="600" y="40" width="430" height="300" as="geometry" />
        </mxCell>
        <mxCell id="NkhRu724K2PwtEVL4MZ3-10" value="Page 2" style="strokeWidth=1;shadow=0;dashed=0;align=center;html=1;shape=mxgraph.mockup.containers.anchor;fontSize=17;fontColor=#666666;align=left;" vertex="1" parent="NkhRu724K2PwtEVL4MZ3-9">
          <mxGeometry x="60" y="12" width="110" height="26" as="geometry" />
        </mxCell>
        <mxCell id="NkhRu724K2PwtEVL4MZ3-11" value="https://www.frikbus.it/registrazione" style="strokeWidth=1;shadow=0;dashed=0;align=center;html=1;shape=mxgraph.mockup.containers.anchor;rSize=0;fontSize=17;fontColor=#666666;align=left;" vertex="1" parent="NkhRu724K2PwtEVL4MZ3-9">
          <mxGeometry x="130" y="60" width="250" height="26" as="geometry" />
        </mxCell>
        <mxCell id="NkhRu724K2PwtEVL4MZ3-39" value="&lt;font style=&quot;font-size: 18px&quot;&gt;REGISTRAZIONE&lt;/font&gt;" style="text;html=1;resizable=0;autosize=1;align=center;verticalAlign=middle;points=[];fillColor=none;strokeColor=none;rounded=0;" vertex="1" parent="NkhRu724K2PwtEVL4MZ3-9">
          <mxGeometry x="145" y="130" width="160" height="20" as="geometry" />
        </mxCell>
        <mxCell id="NkhRu724K2PwtEVL4MZ3-16" value="" style="shape=image;html=1;verticalAlign=top;verticalLabelPosition=bottom;labelBackgroundColor=#ffffff;imageAspect=0;aspect=fixed;image=https://cdn4.iconfinder.com/data/icons/glyphs/24/icons_user-128.png" vertex="1" parent="1">
          <mxGeometry x="610" y="160" width="40" height="40" as="geometry" />
        </mxCell>
        <mxCell id="NkhRu724K2PwtEVL4MZ3-26" value="" style="rounded=0;whiteSpace=wrap;html=1;" vertex="1" parent="1">
          <mxGeometry x="770" y="300" width="120" height="10" as="geometry" />
        </mxCell>
        <mxCell id="NkhRu724K2PwtEVL4MZ3-29" value="" style="rounded=0;whiteSpace=wrap;html=1;" vertex="1" parent="1">
          <mxGeometry x="770" y="270" width="120" height="10" as="geometry" />
        </mxCell>
        <mxCell id="NkhRu724K2PwtEVL4MZ3-30" value="" style="rounded=0;whiteSpace=wrap;html=1;" vertex="1" parent="1">
          <mxGeometry x="770" y="250" width="120" height="10" as="geometry" />
        </mxCell>
        <mxCell id="NkhRu724K2PwtEVL4MZ3-31" value="" style="rounded=0;whiteSpace=wrap;html=1;" vertex="1" parent="1">
          <mxGeometry x="770" y="230" width="120" height="10" as="geometry" />
        </mxCell>
        <mxCell id="NkhRu724K2PwtEVL4MZ3-33" value="" style="rounded=0;whiteSpace=wrap;html=1;" vertex="1" parent="1">
          <mxGeometry x="770" y="210" width="120" height="10" as="geometry" />
        </mxCell>
        <mxCell id="NkhRu724K2PwtEVL4MZ3-34" value="Nome" style="text;html=1;resizable=0;autosize=1;align=center;verticalAlign=middle;points=[];fillColor=none;strokeColor=none;rounded=0;" vertex="1" parent="1">
          <mxGeometry x="690" y="205" width="50" height="20" as="geometry" />
        </mxCell>
        <mxCell id="NkhRu724K2PwtEVL4MZ3-35" value="Cognome" style="text;html=1;resizable=0;autosize=1;align=center;verticalAlign=middle;points=[];fillColor=none;strokeColor=none;rounded=0;" vertex="1" parent="1">
          <mxGeometry x="690" y="225" width="70" height="20" as="geometry" />
        </mxCell>
        <mxCell id="NkhRu724K2PwtEVL4MZ3-36" value="Cellulare" style="text;html=1;resizable=0;autosize=1;align=center;verticalAlign=middle;points=[];fillColor=none;strokeColor=none;rounded=0;" vertex="1" parent="1">
          <mxGeometry x="695" y="245" width="60" height="20" as="geometry" />
        </mxCell>
        <mxCell id="NkhRu724K2PwtEVL4MZ3-37" value="Email" style="text;html=1;resizable=0;autosize=1;align=center;verticalAlign=middle;points=[];fillColor=none;strokeColor=none;rounded=0;" vertex="1" parent="1">
          <mxGeometry x="690" y="265" width="50" height="20" as="geometry" />
        </mxCell>
        <mxCell id="NkhRu724K2PwtEVL4MZ3-38" value="Password" style="text;html=1;resizable=0;autosize=1;align=center;verticalAlign=middle;points=[];fillColor=none;strokeColor=none;rounded=0;" vertex="1" parent="1">
          <mxGeometry x="690" y="295" width="70" height="20" as="geometry" />
        </mxCell>
        <mxCell id="NkhRu724K2PwtEVL4MZ3-48" style="edgeStyle=orthogonalEdgeStyle;shape=flexArrow;rounded=0;orthogonalLoop=1;jettySize=auto;html=1;entryX=1;entryY=0.5;entryDx=0;entryDy=0;entryPerimeter=0;" edge="1" parent="1" source="NkhRu724K2PwtEVL4MZ3-41" target="NkhRu724K2PwtEVL4MZ3-45">
          <mxGeometry relative="1" as="geometry" />
        </mxCell>
        <mxCell id="NkhRu724K2PwtEVL4MZ3-41" value="" style="strokeWidth=1;shadow=0;dashed=0;align=center;html=1;shape=mxgraph.mockup.containers.browserWindow;rSize=0;strokeColor=#666666;strokeColor2=#008cff;strokeColor3=#c4c4c4;mainText=,;recursiveResize=0;" vertex="1" parent="1">
          <mxGeometry x="600" y="440" width="470" height="300" as="geometry" />
        </mxCell>
        <mxCell id="NkhRu724K2PwtEVL4MZ3-42" value="Page 3" style="strokeWidth=1;shadow=0;dashed=0;align=center;html=1;shape=mxgraph.mockup.containers.anchor;fontSize=17;fontColor=#666666;align=left;" vertex="1" parent="NkhRu724K2PwtEVL4MZ3-41">
          <mxGeometry x="60" y="12" width="110" height="26" as="geometry" />
        </mxCell>
        <mxCell id="NkhRu724K2PwtEVL4MZ3-43" value="&lt;font style=&quot;font-size: 15px&quot;&gt;https://www.frikbus.it/registrazione/ricerca&lt;/font&gt;" style="strokeWidth=1;shadow=0;dashed=0;align=center;html=1;shape=mxgraph.mockup.containers.anchor;rSize=0;fontSize=17;fontColor=#666666;align=left;" vertex="1" parent="NkhRu724K2PwtEVL4MZ3-41">
          <mxGeometry x="130" y="60" width="250" height="26" as="geometry" />
        </mxCell>
        <mxCell id="NkhRu724K2PwtEVL4MZ3-54" value="" style="rounded=0;whiteSpace=wrap;html=1;" vertex="1" parent="NkhRu724K2PwtEVL4MZ3-41">
          <mxGeometry x="20" y="160" width="430" height="110" as="geometry" />
        </mxCell>
        <mxCell id="NkhRu724K2PwtEVL4MZ3-55" value="&lt;font style=&quot;font-size: 14px&quot;&gt;Viaggi a partire da&amp;nbsp;€35,00&amp;nbsp;&lt;/font&gt;" style="text;html=1;resizable=0;autosize=1;align=center;verticalAlign=middle;points=[];fillColor=none;strokeColor=none;rounded=0;" vertex="1" parent="NkhRu724K2PwtEVL4MZ3-41">
          <mxGeometry x="10" y="125" width="180" height="20" as="geometry" />
        </mxCell>
        <mxCell id="NkhRu724K2PwtEVL4MZ3-61" value="" style="shape=image;html=1;verticalAlign=top;verticalLabelPosition=bottom;labelBackgroundColor=#ffffff;imageAspect=0;aspect=fixed;image=https://cdn2.iconfinder.com/data/icons/essential-web-1-1/50/control-record-circle-choice-round-128.png" vertex="1" parent="NkhRu724K2PwtEVL4MZ3-41">
          <mxGeometry x="30" y="170" width="20" height="20" as="geometry" />
        </mxCell>
        <mxCell id="NkhRu724K2PwtEVL4MZ3-65" value="" style="rounded=1;whiteSpace=wrap;html=1;" vertex="1" parent="NkhRu724K2PwtEVL4MZ3-41">
          <mxGeometry x="30" y="220" width="160" height="30" as="geometry" />
        </mxCell>
        <mxCell id="NkhRu724K2PwtEVL4MZ3-67" value="" style="shape=image;html=1;verticalAlign=top;verticalLabelPosition=bottom;labelBackgroundColor=#ffffff;imageAspect=0;aspect=fixed;image=https://cdn3.iconfinder.com/data/icons/simple-files-1/128/Location-128.png" vertex="1" parent="NkhRu724K2PwtEVL4MZ3-41">
          <mxGeometry x="30" y="225" width="20" height="20" as="geometry" />
        </mxCell>
        <mxCell id="NkhRu724K2PwtEVL4MZ3-69" value="Roma" style="text;html=1;resizable=0;autosize=1;align=center;verticalAlign=middle;points=[];fillColor=none;strokeColor=none;rounded=0;" vertex="1" parent="NkhRu724K2PwtEVL4MZ3-41">
          <mxGeometry x="40" y="225" width="50" height="20" as="geometry" />
        </mxCell>
        <mxCell id="NkhRu724K2PwtEVL4MZ3-78" value="" style="shape=image;html=1;verticalAlign=top;verticalLabelPosition=bottom;labelBackgroundColor=#ffffff;imageAspect=0;aspect=fixed;image=https://cdn3.iconfinder.com/data/icons/simple-files-1/128/Location-128.png" vertex="1" parent="NkhRu724K2PwtEVL4MZ3-41">
          <mxGeometry x="130" y="225" width="20" height="20" as="geometry" />
        </mxCell>
        <mxCell id="NkhRu724K2PwtEVL4MZ3-79" value="Parigi" style="text;html=1;resizable=0;autosize=1;align=center;verticalAlign=middle;points=[];fillColor=none;strokeColor=none;rounded=0;" vertex="1" parent="NkhRu724K2PwtEVL4MZ3-41">
          <mxGeometry x="140" y="225" width="50" height="20" as="geometry" />
        </mxCell>
        <mxCell id="NkhRu724K2PwtEVL4MZ3-84" value="Andata" style="text;html=1;resizable=0;autosize=1;align=center;verticalAlign=middle;points=[];fillColor=none;strokeColor=none;rounded=0;" vertex="1" parent="NkhRu724K2PwtEVL4MZ3-41">
          <mxGeometry x="190" y="200" width="50" height="20" as="geometry" />
        </mxCell>
        <mxCell id="NkhRu724K2PwtEVL4MZ3-85" value="Ritorno" style="text;html=1;resizable=0;autosize=1;align=center;verticalAlign=middle;points=[];fillColor=none;strokeColor=none;rounded=0;" vertex="1" parent="NkhRu724K2PwtEVL4MZ3-41">
          <mxGeometry x="260" y="200" width="50" height="20" as="geometry" />
        </mxCell>
        <mxCell id="NkhRu724K2PwtEVL4MZ3-87" value="Passeggeri" style="text;html=1;resizable=0;autosize=1;align=center;verticalAlign=middle;points=[];fillColor=none;strokeColor=none;rounded=0;" vertex="1" parent="NkhRu724K2PwtEVL4MZ3-41">
          <mxGeometry x="350" y="200" width="80" height="20" as="geometry" />
        </mxCell>
        <mxCell id="NkhRu724K2PwtEVL4MZ3-92" value="" style="ellipse;whiteSpace=wrap;html=1;aspect=fixed;" vertex="1" parent="NkhRu724K2PwtEVL4MZ3-41">
          <mxGeometry x="430" y="125" width="20" height="20" as="geometry" />
        </mxCell>
        <mxCell id="NkhRu724K2PwtEVL4MZ3-52" style="edgeStyle=orthogonalEdgeStyle;shape=flexArrow;rounded=0;orthogonalLoop=1;jettySize=auto;html=1;" edge="1" parent="1" source="NkhRu724K2PwtEVL4MZ3-45">
          <mxGeometry relative="1" as="geometry">
            <mxPoint x="255" y="860" as="targetPoint" />
          </mxGeometry>
        </mxCell>
        <mxCell id="NkhRu724K2PwtEVL4MZ3-45" value="&#xa;&#xa;&lt;span style=&quot;color: rgb(0, 0, 0); font-family: helvetica; font-size: 12px; font-style: normal; font-weight: 400; letter-spacing: normal; text-align: center; text-indent: 0px; text-transform: none; word-spacing: 0px; background-color: rgb(248, 249, 250); display: inline; float: none;&quot;&gt;Roma&lt;/span&gt;&#xa;&#xa;" style="strokeWidth=1;shadow=0;dashed=0;align=center;html=1;shape=mxgraph.mockup.containers.browserWindow;rSize=0;strokeColor=#666666;strokeColor2=#008cff;strokeColor3=#c4c4c4;mainText=,;recursiveResize=0;" vertex="1" parent="1">
          <mxGeometry x="40" y="440" width="430" height="300" as="geometry" />
        </mxCell>
        <mxCell id="NkhRu724K2PwtEVL4MZ3-46" value="Page 4" style="strokeWidth=1;shadow=0;dashed=0;align=center;html=1;shape=mxgraph.mockup.containers.anchor;fontSize=17;fontColor=#666666;align=left;" vertex="1" parent="NkhRu724K2PwtEVL4MZ3-45">
          <mxGeometry x="60" y="12" width="110" height="26" as="geometry" />
        </mxCell>
        <mxCell id="NkhRu724K2PwtEVL4MZ3-47" value="&lt;font style=&quot;font-size: 11px&quot;&gt;https://www.frikbus.it/registrazione/ricerca/prenotazione&lt;/font&gt;" style="strokeWidth=1;shadow=0;dashed=0;align=center;html=1;shape=mxgraph.mockup.containers.anchor;rSize=0;fontSize=17;fontColor=#666666;align=left;" vertex="1" parent="NkhRu724K2PwtEVL4MZ3-45">
          <mxGeometry x="130" y="60" width="250" height="26" as="geometry" />
        </mxCell>
        <mxCell id="NkhRu724K2PwtEVL4MZ3-109" value="&lt;br&gt;&lt;br&gt;" style="rounded=1;whiteSpace=wrap;html=1;" vertex="1" parent="NkhRu724K2PwtEVL4MZ3-45">
          <mxGeometry x="10" y="120" width="410" height="70" as="geometry" />
        </mxCell>
        <mxCell id="NkhRu724K2PwtEVL4MZ3-114" value="" style="rounded=1;whiteSpace=wrap;html=1;" vertex="1" parent="NkhRu724K2PwtEVL4MZ3-45">
          <mxGeometry x="10" y="210" width="410" height="70" as="geometry" />
        </mxCell>
        <mxCell id="NkhRu724K2PwtEVL4MZ3-119" value="Roma" style="text;html=1;resizable=0;autosize=1;align=center;verticalAlign=middle;points=[];fillColor=none;strokeColor=none;rounded=0;" vertex="1" parent="NkhRu724K2PwtEVL4MZ3-45">
          <mxGeometry x="10" y="240" width="50" height="20" as="geometry" />
        </mxCell>
        <mxCell id="NkhRu724K2PwtEVL4MZ3-135" value="Prenota" style="rounded=1;whiteSpace=wrap;html=1;" vertex="1" parent="NkhRu724K2PwtEVL4MZ3-45">
          <mxGeometry x="339" y="250" width="70" height="20" as="geometry" />
        </mxCell>
        <mxCell id="NkhRu724K2PwtEVL4MZ3-137" value="€124,95" style="text;html=1;resizable=0;autosize=1;align=center;verticalAlign=middle;points=[];fillColor=none;strokeColor=none;rounded=0;" vertex="1" parent="NkhRu724K2PwtEVL4MZ3-45">
          <mxGeometry x="344" y="220" width="60" height="20" as="geometry" />
        </mxCell>
        <mxCell id="NkhRu724K2PwtEVL4MZ3-49" value="" style="strokeWidth=1;shadow=0;dashed=0;align=center;html=1;shape=mxgraph.mockup.containers.browserWindow;rSize=0;strokeColor=#666666;strokeColor2=#008cff;strokeColor3=#c4c4c4;mainText=,;recursiveResize=0;" vertex="1" parent="1">
          <mxGeometry x="40" y="860" width="430" height="280" as="geometry" />
        </mxCell>
        <mxCell id="NkhRu724K2PwtEVL4MZ3-50" value="Page 5" style="strokeWidth=1;shadow=0;dashed=0;align=center;html=1;shape=mxgraph.mockup.containers.anchor;fontSize=17;fontColor=#666666;align=left;" vertex="1" parent="NkhRu724K2PwtEVL4MZ3-49">
          <mxGeometry x="60" y="12" width="110" height="26" as="geometry" />
        </mxCell>
        <mxCell id="NkhRu724K2PwtEVL4MZ3-51" value="&lt;font style=&quot;font-size: 10px&quot;&gt;https://www.frikbus.it/registrazione/ricerca/prenotazione/acquisto&lt;/font&gt;" style="strokeWidth=1;shadow=0;dashed=0;align=center;html=1;shape=mxgraph.mockup.containers.anchor;rSize=0;fontSize=17;fontColor=#666666;align=left;" vertex="1" parent="NkhRu724K2PwtEVL4MZ3-49">
          <mxGeometry x="130" y="60" width="250" height="26" as="geometry" />
        </mxCell>
        <mxCell id="NkhRu724K2PwtEVL4MZ3-94" value="Seleziona carta" style="text;html=1;resizable=0;autosize=1;align=center;verticalAlign=middle;points=[];fillColor=none;strokeColor=none;rounded=0;" vertex="1" parent="NkhRu724K2PwtEVL4MZ3-49">
          <mxGeometry x="10" y="120" width="100" height="20" as="geometry" />
        </mxCell>
        <mxCell id="NkhRu724K2PwtEVL4MZ3-95" value="" style="rounded=1;whiteSpace=wrap;html=1;" vertex="1" parent="NkhRu724K2PwtEVL4MZ3-49">
          <mxGeometry x="20" y="150" width="120" height="20" as="geometry" />
        </mxCell>
        <mxCell id="NkhRu724K2PwtEVL4MZ3-71" value="" style="html=1;verticalLabelPosition=bottom;labelBackgroundColor=#ffffff;verticalAlign=top;shadow=0;dashed=0;strokeWidth=2;shape=mxgraph.ios7.misc.down;strokeColor=#0080f0;" vertex="1" parent="NkhRu724K2PwtEVL4MZ3-49">
          <mxGeometry x="118" y="157" width="12" height="6" as="geometry" />
        </mxCell>
        <mxCell id="NkhRu724K2PwtEVL4MZ3-101" value="" style="rounded=0;whiteSpace=wrap;html=1;" vertex="1" parent="NkhRu724K2PwtEVL4MZ3-49">
          <mxGeometry x="70" y="170" width="135" height="80" as="geometry" />
        </mxCell>
        <mxCell id="NkhRu724K2PwtEVL4MZ3-103" value="PayPal" style="text;html=1;resizable=0;autosize=1;align=center;verticalAlign=middle;points=[];fillColor=none;strokeColor=none;rounded=0;" vertex="1" parent="NkhRu724K2PwtEVL4MZ3-49">
          <mxGeometry x="68" y="190" width="50" height="20" as="geometry" />
        </mxCell>
        <mxCell id="NkhRu724K2PwtEVL4MZ3-104" value="PostaPay" style="text;html=1;resizable=0;autosize=1;align=center;verticalAlign=middle;points=[];fillColor=none;strokeColor=none;rounded=0;" vertex="1" parent="NkhRu724K2PwtEVL4MZ3-49">
          <mxGeometry x="68" y="210" width="70" height="20" as="geometry" />
        </mxCell>
        <mxCell id="NkhRu724K2PwtEVL4MZ3-102" value="Visa" style="text;html=1;resizable=0;autosize=1;align=right;verticalAlign=middle;points=[];fillColor=none;strokeColor=none;rounded=0;" vertex="1" parent="NkhRu724K2PwtEVL4MZ3-49">
          <mxGeometry x="60" y="170" width="40" height="20" as="geometry" />
        </mxCell>
        <mxCell id="NkhRu724K2PwtEVL4MZ3-105" value="America Express" style="text;html=1;resizable=0;autosize=1;align=center;verticalAlign=middle;points=[];fillColor=none;strokeColor=none;rounded=0;" vertex="1" parent="NkhRu724K2PwtEVL4MZ3-49">
          <mxGeometry x="68" y="230" width="110" height="20" as="geometry" />
        </mxCell>
        <mxCell id="NkhRu724K2PwtEVL4MZ3-107" value="" style="rounded=1;whiteSpace=wrap;html=1;" vertex="1" parent="NkhRu724K2PwtEVL4MZ3-49">
          <mxGeometry x="260" y="150" width="120" height="20" as="geometry" />
        </mxCell>
        <mxCell id="NkhRu724K2PwtEVL4MZ3-53" value="UTENTI" style="text;html=1;resizable=0;autosize=1;align=center;verticalAlign=middle;points=[];fillColor=none;strokeColor=none;rounded=0;" vertex="1" parent="1">
          <mxGeometry x="500" y="160" width="60" height="20" as="geometry" />
        </mxCell>
        <mxCell id="NkhRu724K2PwtEVL4MZ3-58" value="Solo andata" style="text;html=1;resizable=0;autosize=1;align=center;verticalAlign=middle;points=[];fillColor=none;strokeColor=none;rounded=0;" vertex="1" parent="1">
          <mxGeometry x="650" y="610" width="80" height="20" as="geometry" />
        </mxCell>
        <mxCell id="NkhRu724K2PwtEVL4MZ3-62" value="" style="shape=image;html=1;verticalAlign=top;verticalLabelPosition=bottom;labelBackgroundColor=#ffffff;imageAspect=0;aspect=fixed;image=https://cdn2.iconfinder.com/data/icons/essential-web-1-1/50/control-record-circle-choice-round-128.png" vertex="1" parent="1">
          <mxGeometry x="760" y="610" width="20" height="20" as="geometry" />
        </mxCell>
        <mxCell id="NkhRu724K2PwtEVL4MZ3-63" value="Ritorno" style="text;html=1;resizable=0;autosize=1;align=center;verticalAlign=middle;points=[];fillColor=none;strokeColor=none;rounded=0;" vertex="1" parent="1">
          <mxGeometry x="780" y="610" width="50" height="20" as="geometry" />
        </mxCell>
        <mxCell id="NkhRu724K2PwtEVL4MZ3-68" value="Da" style="text;html=1;resizable=0;autosize=1;align=center;verticalAlign=middle;points=[];fillColor=none;strokeColor=none;rounded=0;" vertex="1" parent="1">
          <mxGeometry x="620" y="640" width="30" height="20" as="geometry" />
        </mxCell>
        <mxCell id="NkhRu724K2PwtEVL4MZ3-77" value="A" style="text;html=1;resizable=0;autosize=1;align=center;verticalAlign=middle;points=[];fillColor=none;strokeColor=none;rounded=0;" vertex="1" parent="1">
          <mxGeometry x="730" y="640" width="20" height="20" as="geometry" />
        </mxCell>
        <mxCell id="NkhRu724K2PwtEVL4MZ3-80" value="" style="rounded=1;whiteSpace=wrap;html=1;" vertex="1" parent="1">
          <mxGeometry x="800" y="660" width="150" height="30" as="geometry" />
        </mxCell>
        <mxCell id="NkhRu724K2PwtEVL4MZ3-81" value="gio 13 mag" style="text;html=1;resizable=0;autosize=1;align=center;verticalAlign=middle;points=[];fillColor=none;strokeColor=none;rounded=0;" vertex="1" parent="1">
          <mxGeometry x="800" y="665" width="70" height="20" as="geometry" />
        </mxCell>
        <mxCell id="NkhRu724K2PwtEVL4MZ3-82" value="" style="line;strokeWidth=2;direction=south;html=1;" vertex="1" parent="1">
          <mxGeometry x="870" y="660" width="10" height="30" as="geometry" />
        </mxCell>
        <mxCell id="NkhRu724K2PwtEVL4MZ3-83" value="sab 15 mag" style="text;html=1;resizable=0;autosize=1;align=center;verticalAlign=middle;points=[];fillColor=none;strokeColor=none;rounded=0;" vertex="1" parent="1">
          <mxGeometry x="870" y="665" width="80" height="20" as="geometry" />
        </mxCell>
        <mxCell id="NkhRu724K2PwtEVL4MZ3-86" value="" style="rounded=1;whiteSpace=wrap;html=1;" vertex="1" parent="1">
          <mxGeometry x="960" y="660" width="80" height="30" as="geometry" />
        </mxCell>
        <mxCell id="NkhRu724K2PwtEVL4MZ3-88" value="1/... adulti,&lt;br&gt;1/...bambini" style="text;html=1;resizable=0;autosize=1;align=left;verticalAlign=middle;points=[];fillColor=none;strokeColor=none;rounded=0;" vertex="1" parent="1">
          <mxGeometry x="960" y="660" width="80" height="30" as="geometry" />
        </mxCell>
        <mxCell id="NkhRu724K2PwtEVL4MZ3-91" value="" style="shape=image;html=1;verticalAlign=top;verticalLabelPosition=bottom;labelBackgroundColor=#ffffff;imageAspect=0;aspect=fixed;image=https://cdn4.iconfinder.com/data/icons/ionicons/512/icon-ios7-search-strong-128.png" vertex="1" parent="1">
          <mxGeometry x="1030" y="565" width="20" height="20" as="geometry" />
        </mxCell>
        <mxCell id="NkhRu724K2PwtEVL4MZ3-96" value="Mastercard" style="text;html=1;resizable=0;autosize=1;align=center;verticalAlign=middle;points=[];fillColor=none;strokeColor=none;rounded=0;" vertex="1" parent="1">
          <mxGeometry x="60" y="1010" width="80" height="20" as="geometry" />
        </mxCell>
        <mxCell id="NkhRu724K2PwtEVL4MZ3-106" value="Numero della carta" style="text;html=1;resizable=0;autosize=1;align=center;verticalAlign=middle;points=[];fillColor=none;strokeColor=none;rounded=0;" vertex="1" parent="1">
          <mxGeometry x="294" y="980" width="120" height="20" as="geometry" />
        </mxCell>
        <mxCell id="NkhRu724K2PwtEVL4MZ3-115" value="&lt;b&gt;&lt;font style=&quot;font-size: 14px&quot;&gt;22:30&lt;/font&gt;&lt;/b&gt;" style="text;html=1;resizable=0;autosize=1;align=center;verticalAlign=middle;points=[];fillColor=none;strokeColor=none;rounded=0;" vertex="1" parent="1">
          <mxGeometry x="50" y="574" width="50" height="20" as="geometry" />
        </mxCell>
        <mxCell id="NkhRu724K2PwtEVL4MZ3-116" value="Roma" style="text;html=1;resizable=0;autosize=1;align=center;verticalAlign=middle;points=[];fillColor=none;strokeColor=none;rounded=0;" vertex="1" parent="1">
          <mxGeometry x="50" y="594" width="50" height="20" as="geometry" />
        </mxCell>
        <mxCell id="NkhRu724K2PwtEVL4MZ3-118" value="&lt;b&gt;&lt;font style=&quot;font-size: 14px&quot;&gt;23:35&lt;/font&gt;&lt;/b&gt;" style="text;html=1;resizable=0;autosize=1;align=center;verticalAlign=middle;points=[];fillColor=none;strokeColor=none;rounded=0;" vertex="1" parent="1">
          <mxGeometry x="50" y="665" width="50" height="20" as="geometry" />
        </mxCell>
        <mxCell id="NkhRu724K2PwtEVL4MZ3-120" value="" style="line;strokeWidth=4;html=1;perimeter=backbonePerimeter;points=[];outlineConnect=0;" vertex="1" parent="1">
          <mxGeometry x="100" y="579" width="60" height="10" as="geometry" />
        </mxCell>
        <mxCell id="NkhRu724K2PwtEVL4MZ3-121" value="" style="line;strokeWidth=4;html=1;perimeter=backbonePerimeter;points=[];outlineConnect=0;" vertex="1" parent="1">
          <mxGeometry x="100" y="670" width="60" height="10" as="geometry" />
        </mxCell>
        <mxCell id="NkhRu724K2PwtEVL4MZ3-122" value="&lt;b&gt;&lt;font style=&quot;font-size: 14px&quot;&gt;1g 8h&lt;/font&gt;&lt;/b&gt;" style="text;html=1;resizable=0;autosize=1;align=center;verticalAlign=middle;points=[];fillColor=none;strokeColor=none;rounded=0;" vertex="1" parent="1">
          <mxGeometry x="160" y="574" width="50" height="20" as="geometry" />
        </mxCell>
        <mxCell id="NkhRu724K2PwtEVL4MZ3-123" value="&lt;b&gt;&lt;font style=&quot;font-size: 14px&quot;&gt;1g 8h&lt;/font&gt;&lt;/b&gt;" style="text;html=1;resizable=0;autosize=1;align=center;verticalAlign=middle;points=[];fillColor=none;strokeColor=none;rounded=0;" vertex="1" parent="1">
          <mxGeometry x="160" y="665" width="50" height="20" as="geometry" />
        </mxCell>
        <mxCell id="NkhRu724K2PwtEVL4MZ3-124" value="" style="line;strokeWidth=4;html=1;perimeter=backbonePerimeter;points=[];outlineConnect=0;" vertex="1" parent="1">
          <mxGeometry x="210" y="579" width="60" height="10" as="geometry" />
        </mxCell>
        <mxCell id="NkhRu724K2PwtEVL4MZ3-125" value="" style="line;strokeWidth=4;html=1;perimeter=backbonePerimeter;points=[];outlineConnect=0;" vertex="1" parent="1">
          <mxGeometry x="210" y="670" width="60" height="10" as="geometry" />
        </mxCell>
        <mxCell id="NkhRu724K2PwtEVL4MZ3-126" value="&lt;b style=&quot;color: rgb(0 , 0 , 0) ; font-family: &amp;#34;helvetica&amp;#34; ; font-size: 12px ; font-style: normal ; letter-spacing: normal ; text-align: center ; text-indent: 0px ; text-transform: none ; word-spacing: 0px ; background-color: rgb(248 , 249 , 250)&quot;&gt;&lt;font style=&quot;font-size: 14px&quot;&gt;06:30&lt;/font&gt;&lt;/b&gt;" style="text;whiteSpace=wrap;html=1;" vertex="1" parent="1">
          <mxGeometry x="280" y="569" width="60" height="30" as="geometry" />
        </mxCell>
        <mxCell id="NkhRu724K2PwtEVL4MZ3-128" value="&lt;b style=&quot;color: rgb(0 , 0 , 0) ; font-family: &amp;#34;helvetica&amp;#34; ; font-size: 12px ; font-style: normal ; letter-spacing: normal ; text-align: center ; text-indent: 0px ; text-transform: none ; word-spacing: 0px ; background-color: rgb(248 , 249 , 250)&quot;&gt;&lt;font style=&quot;font-size: 14px&quot;&gt;07:35&lt;/font&gt;&lt;/b&gt;" style="text;whiteSpace=wrap;html=1;" vertex="1" parent="1">
          <mxGeometry x="280" y="660" width="60" height="30" as="geometry" />
        </mxCell>
        <mxCell id="NkhRu724K2PwtEVL4MZ3-129" value="Parigi" style="text;html=1;resizable=0;autosize=1;align=center;verticalAlign=middle;points=[];fillColor=none;strokeColor=none;rounded=0;" vertex="1" parent="1">
          <mxGeometry x="270" y="590" width="50" height="20" as="geometry" />
        </mxCell>
        <mxCell id="NkhRu724K2PwtEVL4MZ3-130" value="Parigi" style="text;html=1;resizable=0;autosize=1;align=center;verticalAlign=middle;points=[];fillColor=none;strokeColor=none;rounded=0;" vertex="1" parent="1">
          <mxGeometry x="270" y="680" width="50" height="20" as="geometry" />
        </mxCell>
        <mxCell id="NkhRu724K2PwtEVL4MZ3-132" value="" style="rounded=1;whiteSpace=wrap;html=1;" vertex="1" parent="1">
          <mxGeometry x="379" y="599" width="70" height="20" as="geometry" />
        </mxCell>
        <mxCell id="NkhRu724K2PwtEVL4MZ3-133" value="Prenota" style="text;html=1;resizable=0;autosize=1;align=center;verticalAlign=middle;points=[];fillColor=none;strokeColor=none;rounded=0;" vertex="1" parent="1">
          <mxGeometry x="384" y="600" width="60" height="20" as="geometry" />
        </mxCell>
        <mxCell id="NkhRu724K2PwtEVL4MZ3-136" value="€130,25" style="text;html=1;resizable=0;autosize=1;align=center;verticalAlign=middle;points=[];fillColor=none;strokeColor=none;rounded=0;" vertex="1" parent="1">
          <mxGeometry x="384" y="570" width="60" height="20" as="geometry" />
        </mxCell>
      </root>
    </mxGraphModel>
  </diagram>
</mxfile>
